ply
format ascii 1.0
comment VCGLIB generated
element vertex 514
property float x
property float y
property float z
element face 1024
property list uchar int vertex_indices
end_header
2.63156e-08 -0.5555707 1.047803 
4.121676e-08 -0.3826838 1.404621 
-0.07465781 -0.3753307 1.404621 
-0.1083864 -0.5448955 1.047803 
-8.544311e-08 -0.8314697 -0.5555702 
6.35685e-08 -0.9238799 -0.3826833 
-0.1802399 -0.9061278 -0.3826833 
-0.1622117 -0.8154932 -0.5555702 
-2.583847e-08 -0.7071071 0.7586148 
-0.1379497 -0.6935202 0.7586148 
-2.583847e-08 -0.7071071 -0.7071068 
-0.1379497 -0.6935202 -0.7071068 
-8.544311e-08 -0.8314697 0.5555702 
-0.1622117 -0.8154932 0.5555702 
-1.093731e-08 -0.5555705 -0.8314697 
-0.1083864 -0.5448954 -0.8314697 
6.35685e-08 -0.9238799 0.3826834 
-0.1802399 -0.9061278 0.3826834 
3.963855e-09 -0.3826837 -0.9238796 
-0.07465782 -0.3753305 -0.9238796 
-8.544311e-08 -0.9807854 0.1950904 
-0.1913418 -0.9619398 0.1950904 
3.963855e-09 -0.1950906 -0.9807853 
-0.03806023 -0.191342 -0.9807853 
-1.003443e-07 -1 7.54979e-08 
-0.1950904 -0.9807856 7.54979e-08 
-7.212016e-09 -0.1950908 1.771158 
-1.810277e-07 -5.967684e-07 2.160637 
-0.03806028 -0.1913422 1.771158 
0 -3.258414e-07 -1 
-8.544311e-08 -0.9807854 -0.1950902 
-0.1913418 -0.9619398 -0.1950902 
-0.3535533 -0.8535537 0.3826834 
-0.3753303 -0.9061275 0.1950904 
-0.1464466 -0.3535536 -0.9238796 
-0.07465782 -0.1802402 -0.9807853 
-0.3826836 -0.9238798 7.54979e-08 
-0.07465791 -0.1802404 1.771158 
-0.3753303 -0.9061275 -0.1950902 
-0.1464466 -0.3535537 1.404621 
-0.3535533 -0.8535537 -0.3826833 
-0.2126075 -0.5132804 1.047803 
-0.3181897 -0.7681777 -0.5555702 
-0.2705981 -0.6532817 0.7586148 
-0.2705981 -0.6532817 -0.7071068 
-0.3181897 -0.7681777 0.5555702 
-0.2126075 -0.5132802 -0.8314697 
-0.5132799 -0.768178 -0.3826833 
-0.4619397 -0.6913417 -0.5555702 
-0.3086583 -0.4619402 1.047803 
-0.3928475 -0.5879381 0.7586148 
-0.3928475 -0.5879381 -0.7071068 
-0.4619397 -0.6913417 0.5555702 
-0.3086582 -0.46194 -0.8314697 
-0.5132799 -0.768178 0.3826834 
-0.2126075 -0.3181899 -0.9238796 
-0.5448951 -0.8154932 0.1950904 
-0.1083863 -0.162212 -0.9807853 
-0.5555704 -0.8314698 7.54979e-08 
-0.1083865 -0.1622121 1.771158 
-0.5448951 -0.8154932 -0.1950902 
-0.2126075 -0.31819 1.404621 
-0.270598 -0.2705983 -0.9238796 
-0.1379496 -0.13795 -0.9807853 
-0.6935198 -0.6935199 0.1950904 
-0.7071069 -0.7071069 7.54979e-08 
-0.1379498 -0.1379501 1.771158 
-0.6935198 -0.6935199 -0.1950902 
-0.2705981 -0.2705984 1.404621 
-0.6532814 -0.6532817 -0.3826833 
-0.3928475 -0.3928479 1.047803 
-0.5879377 -0.5879378 -0.5555702 
-0.5 -0.5000002 0.7586148 
-0.5 -0.5000002 -0.7071068 
-0.5879377 -0.5879378 0.5555702 
-0.3928474 -0.3928477 -0.8314697 
-0.6532814 -0.6532817 0.3826834 
-0.6913415 -0.4619398 -0.5555702 
-0.5879378 -0.3928477 -0.7071068 
-0.5879378 -0.3928477 0.7586148 
-0.6913415 -0.4619398 0.5555702 
-0.4619397 -0.3086585 -0.8314697 
-0.7681777 -0.5132803 0.3826834 
-0.3181896 -0.2126077 -0.9238796 
-0.8154929 -0.5448951 0.1950904 
-0.1622116 -0.1083867 -0.9807853 
-0.8314697 -0.5555704 7.54979e-08 
-0.1622118 -0.1083868 1.771158 
-0.8154929 -0.5448951 -0.1950902 
-0.3181897 -0.2126078 1.404621 
-0.7681777 -0.5132803 -0.3826833 
-0.4619398 -0.3086586 1.047803 
-0.1802401 -0.07465821 1.771158 
-0.1802399 -0.07465812 -0.9807853 
-0.9238795 -0.3826835 7.54979e-08 
-0.9061272 -0.3753302 -0.1950902 
-0.3535534 -0.1464469 1.404621 
-0.8535534 -0.3535537 -0.3826833 
-0.51328 -0.2126078 1.047803 
-0.7681774 -0.3181897 -0.5555702 
-0.6532815 -0.2705983 0.7586148 
-0.6532815 -0.2705983 -0.7071068 
-0.7681774 -0.3181897 0.5555702 
-0.5132799 -0.2126077 -0.8314697 
-0.8535534 -0.3535537 0.3826834 
-0.3535533 -0.1464468 -0.9238796 
-0.9061272 -0.3753302 0.1950904 
-0.6935199 -0.1379499 0.7586148 
-0.8154928 -0.1622117 0.5555702 
-0.6935199 -0.1379499 -0.7071068 
-0.544895 -0.1083866 -0.8314697 
-0.9061274 -0.1802403 0.3826834 
-0.3753301 -0.07465806 -0.9238796 
-0.9619394 -0.1913417 0.1950904 
-0.1913416 -0.03806053 -0.9807853 
-0.9807852 -0.1950904 7.54979e-08 
-0.1913419 -0.03806058 1.771158 
-0.9619394 -0.1913417 -0.1950902 
-0.3753302 -0.0746581 1.404621 
-0.9061274 -0.1802403 -0.3826833 
-0.5448951 -0.1083867 1.047803 
-0.8154928 -0.1622117 -0.5555702 
-0.9999998 -1.403714e-07 7.54979e-08 
-0.9807848 -9.566793e-08 -0.1950902 
-0.1950905 -3.117348e-07 1.771158 
-0.3826834 -2.819324e-07 1.404621 
-0.9238794 -3.191853e-07 -0.3826833 
-0.5555702 -2.819324e-07 1.047803 
-0.8314692 -1.403714e-07 -0.5555702 
-0.7071067 -1.850749e-07 0.7586148 
-0.7071067 -1.850749e-07 -0.7071068 
-0.8314692 -1.403714e-07 0.5555702 
-0.5555701 -2.595807e-07 -0.8314697 
-0.9238794 -3.191853e-07 0.3826834 
-0.3826832 -2.521301e-07 -0.9238796 
-0.9807848 -9.566793e-08 0.1950904 
-0.1950902 -3.154601e-07 -0.9807853 
-0.6935198 0.1379495 -0.7071068 
-0.5448949 0.1083861 -0.8314697 
-0.8154927 0.1622115 0.5555702 
-0.9061273 0.1802396 0.3826834 
-0.3753301 0.07465754 -0.9238796 
-0.9619392 0.1913415 0.1950904 
-0.1913416 0.0380599 -0.9807853 
-0.980785 0.1950902 7.54979e-08 
-0.1913418 0.03805995 1.771158 
-0.9619392 0.1913415 -0.1950902 
-0.3753302 0.07465754 1.404621 
-0.9061273 0.1802396 -0.3826833 
-0.5448951 0.1083861 1.047803 
-0.8154927 0.1622115 -0.5555702 
-0.6935198 0.1379495 0.7586148 
-0.1802401 0.07465757 1.771158 
-0.3535533 0.1464463 1.404621 
-0.9061269 0.37533 -0.1950902 
-0.8535533 0.3535531 -0.3826833 
-0.5132799 0.2126072 1.047803 
-0.7681773 0.3181894 -0.5555702 
-0.6532813 0.2705978 0.7586148 
-0.6532813 0.2705978 -0.7071068 
-0.7681773 0.3181894 0.5555702 
-0.5132797 0.2126072 -0.8314697 
-0.8535533 0.3535531 0.3826834 
-0.3535532 0.1464463 -0.9238796 
-0.9061269 0.37533 0.1950904 
-0.1802399 0.07465748 -0.9807853 
-0.9238792 0.3826832 7.54979e-08 
-0.6913412 0.4619394 0.5555702 
-0.7681776 0.5132796 0.3826834 
-0.4619395 0.3086579 -0.8314697 
-0.3181894 0.2126072 -0.9238796 
-0.8154926 0.5448947 0.1950904 
-0.1622116 0.108386 -0.9807853 
-0.8314692 0.5555699 7.54979e-08 
-0.1622118 0.1083861 1.771158 
-0.8154926 0.5448947 -0.1950902 
-0.3181896 0.2126072 1.404621 
-0.7681776 0.5132796 -0.3826833 
-0.4619396 0.308658 1.047803 
-0.6913412 0.4619394 -0.5555702 
-0.5879377 0.3928472 0.7586148 
-0.5879377 0.3928472 -0.7071068 
-0.6935194 0.6935194 -0.1950902 
-0.6532814 0.6532811 -0.3826833 
-0.2705979 0.2705977 1.404621 
-0.3928473 0.3928472 1.047803 
-0.5879373 0.5879374 -0.5555702 
-0.4999999 0.4999997 0.7586148 
-0.4999999 0.4999997 -0.7071068 
-0.5879373 0.5879374 0.5555702 
-0.3928472 0.3928471 -0.8314697 
-0.6532814 0.6532811 0.3826834 
-0.2705979 0.2705976 -0.9238796 
-0.6935194 0.6935194 0.1950904 
-0.1379496 0.1379493 -0.9807853 
-0.7071064 0.7071064 7.54979e-08 
-0.1379498 0.1379495 1.771158 
-0.3086581 0.4619393 -0.8314697 
-0.2126074 0.3181892 -0.9238796 
-0.5132799 0.7681773 0.3826834 
-0.5448946 0.8154925 0.1950904 
-0.1083863 0.1622113 -0.9807853 
-0.5555698 0.8314691 7.54979e-08 
-0.1083864 0.1622115 1.771158 
-0.5448946 0.8154925 -0.1950902 
-0.2126074 0.3181893 1.404621 
-0.5132799 0.7681773 -0.3826833 
-0.3086581 0.4619394 1.047803 
-0.4619393 0.6913412 -0.5555702 
-0.3928473 0.5879375 0.7586148 
-0.3928473 0.5879375 -0.7071068 
-0.4619393 0.6913412 0.5555702 
-0.3535533 0.8535529 -0.3826833 
-0.3181892 0.7681771 -0.5555702 
-0.2126074 0.5132796 1.047803 
-0.2705979 0.6532812 0.7586148 
-0.2705979 0.6532812 -0.7071068 
-0.3181892 0.7681771 0.5555702 
-0.2126073 0.5132794 -0.8314697 
-0.3535533 0.8535529 0.3826834 
-0.1464465 0.3535529 -0.9238796 
-0.3753298 0.9061266 0.1950904 
-0.07465779 0.1802396 -0.9807853 
-0.382683 0.9238789 7.54979e-08 
-0.07465786 0.1802398 1.771158 
-0.3753298 0.9061266 -0.1950902 
-0.1464465 0.353553 1.404621 
-0.07465772 0.3753298 -0.9238796 
-0.0380602 0.1913413 -0.9807853 
-0.1913413 0.9619389 0.1950904 
-0.19509 0.9807845 7.54979e-08 
-0.03806023 0.1913415 1.771158 
-0.1913413 0.9619389 -0.1950902 
-0.07465774 0.3753299 1.404621 
-0.1802399 0.906127 -0.3826833 
-0.1083862 0.5448946 1.047803 
-0.1622113 0.8154924 -0.5555702 
-0.1379495 0.6935195 0.7586148 
-0.1379495 0.6935195 -0.7071068 
-0.1622113 0.8154924 0.5555702 
-0.1083862 0.5448945 -0.8314697 
-0.1802399 0.906127 0.3826834 
1.08272e-07 0.5555697 1.047803 
1.529755e-07 0.7071064 0.7586148 
2.721848e-07 0.8314688 -0.5555702 
1.529755e-07 0.7071064 -0.7071068 
2.721848e-07 0.8314688 0.5555702 
1.231732e-07 0.5555696 -0.8314697 
6.35685e-08 0.923879 0.3826834 
7.846966e-08 0.3826829 -0.9238796 
2.572836e-07 0.9807843 0.1950904 
1.513973e-08 0.1950899 -0.9807853 
2.721848e-07 0.9999992 7.54979e-08 
3.749147e-08 0.1950901 1.771158 
2.572836e-07 0.9807843 -0.1950902 
7.846966e-08 0.382683 1.404621 
6.35685e-08 0.923879 -0.3826833 
0.001895913 -0.4292887 0.984073 
-0.08365868 -0.4205637 0.9838304 
-0.04986079 -0.2506522 1.34135 
-0.0009443918 -0.2560509 1.341597 
-0.005692662 -0.7135344 -0.4773439 
-0.1391265 -0.6994343 -0.4770795 
-0.1546238 -0.7773367 -0.3286473 
-0.004427093 -0.7931083 -0.3288726 
-0.0003458215 -0.5841274 0.6886701 
-0.1138721 -0.5724646 0.6884144 
-0.007400052 -0.6065149 -0.607377 
-0.1182794 -0.5946181 -0.6071343 
-0.0003632158 -0.7086416 0.4853567 
-0.1381644 -0.694585 0.485101 
-0.00949318 -0.4762044 -0.7139807 
-0.09288064 -0.4669377 -0.713803 
-0.004427093 -0.7931083 0.3288728 
-0.1546238 -0.7773367 0.3286474 
-0.0005445383 -0.3276466 -0.7930951 
-0.06391475 -0.3213119 -0.7929997 
-0.003651522 -0.8421309 0.1676802 
-0.1641656 -0.8253135 0.1675545 
-0.003153383 -0.1665624 -0.8417105 
-0.03249585 -0.1633555 -0.8416845 
-0.003391519 -0.8586851 7.54979e-08 
-0.1673899 -0.8415158 7.54979e-08 
-0.0009877756 -0.1305839 1.707245 
-0.01334993 -0.1271752 1.706998 
0.0002673566 -5.967684e-07 2.07318 
-2.091751e-06 -3.258414e-07 -0.858286 
-0.003651522 -0.8421309 -0.16768 
-0.1641656 -0.8253135 -0.1675543 
-0.3220223 -0.7774273 0.1675545 
-0.3033049 -0.7322338 0.3286474 
-0.06373708 -0.1538788 -0.8416845 
-0.1253721 -0.3026682 -0.7929997 
-0.3283442 -0.7926922 7.54979e-08 
-0.02618194 -0.1197932 1.706998 
-0.3220223 -0.7774273 -0.1675543 
-0.09780162 -0.2361081 1.34135 
-0.3033049 -0.7322338 -0.3286473 
-0.1640969 -0.3961597 0.9838304 
-0.2729076 -0.6588533 -0.4770795 
-0.2233658 -0.5392467 0.6884144 
-0.2320114 -0.5601217 -0.6071343 
-0.2710138 -0.6542857 0.485101 
-0.1821898 -0.4398469 -0.713803 
-0.3961985 -0.592951 -0.4770795 
-0.4403276 -0.6589923 -0.3286473 
-0.3242765 -0.4853091 0.6884144 
-0.2382282 -0.3565376 0.9838304 
-0.3368267 -0.5040954 -0.6071343 
-0.393451 -0.5888427 0.485101 
-0.2644986 -0.3958521 -0.713803 
-0.4403276 -0.6589923 0.3286474 
-0.1820077 -0.2723964 -0.7929997 
-0.4675051 -0.6996683 0.1675545 
-0.09253393 -0.1384853 -0.8416845 
-0.476681 -0.7134045 7.54979e-08 
-0.03800835 -0.1078091 1.706998 
-0.4675051 -0.6996683 -0.1675543 
-0.1419824 -0.2124928 1.34135 
-0.1177723 -0.1177726 -0.8416845 
-0.2316517 -0.2316519 -0.7929997 
-0.606701 -0.6067011 7.54979e-08 
-0.5950207 -0.5950208 0.1675545 
-0.04837804 -0.09168991 1.706998 
-0.5950207 -0.5950208 -0.1675543 
-0.1807099 -0.1807102 1.34135 
-0.5604291 -0.5604295 -0.3286473 
-0.3032107 -0.3032111 0.9838304 
-0.5042639 -0.5042641 -0.4770795 
-0.4127251 -0.4127253 0.6884144 
-0.4286988 -0.428699 -0.6071343 
-0.5007667 -0.5007668 0.485101 
-0.3366446 -0.3366449 -0.713803 
-0.5604291 -0.5604295 0.3286474 
-0.5040951 -0.3368269 -0.6071343 
-0.5929508 -0.3961986 -0.4770795 
-0.5888425 -0.3934511 0.485101 
-0.4853088 -0.3242767 0.6884144 
-0.3958519 -0.2644988 -0.713803 
-0.6589919 -0.440328 0.3286474 
-0.2723961 -0.182008 -0.7929997 
-0.699668 -0.4675051 0.1675545 
-0.138485 -0.09253424 -0.8416845 
-0.7134043 -0.476681 7.54979e-08 
-0.05688296 -0.07203648 1.706998 
-0.699668 -0.4675051 -0.1675543 
-0.2124925 -0.1419827 1.34135 
-0.6589919 -0.440328 -0.3286473 
-0.3565373 -0.2382285 0.9838304 
-0.06320612 -0.0496222 1.706998 
-0.1538784 -0.06373738 -0.8416845 
-0.7774271 -0.3220223 -0.1675543 
-0.7926919 -0.3283442 7.54979e-08 
-0.2361077 -0.09780189 1.34135 
-0.7322334 -0.3033053 -0.3286473 
-0.3961593 -0.1640972 0.9838304 
-0.658853 -0.2729076 -0.4770795 
-0.5392463 -0.2233661 0.6884144 
-0.5601214 -0.2320116 -0.6071343 
-0.6542854 -0.2710138 0.485101 
-0.4398465 -0.18219 -0.713803 
-0.7322334 -0.3033053 0.3286474 
-0.3026678 -0.1253724 -0.7929997 
-0.7774271 -0.3220223 0.1675545 
-0.6945845 -0.1381644 0.485101 
-0.5724643 -0.1138722 0.6884144 
-0.4669374 -0.0928809 -0.713803 
-0.5946178 -0.1182795 -0.6071343 
-0.7773363 -0.1546242 0.3286474 
-0.3213114 -0.06391499 -0.7929997 
-0.8253131 -0.1641656 0.1675545 
-0.1633551 -0.03249615 -0.8416845 
-0.8415154 -0.1673899 7.54979e-08 
-0.06710106 -0.02530203 1.706998 
-0.8253131 -0.1641656 -0.1675543 
-0.2506517 -0.04986108 1.34135 
-0.7773363 -0.1546242 -0.3286473 
-0.4205633 -0.08365898 0.9838304 
-0.6994339 -0.1391265 -0.4770795 
-0.8414847 -9.566793e-08 -0.1675543 
-0.8579998 -1.403714e-07 7.54979e-08 
-0.2555607 -2.819324e-07 1.34135 
-0.06841417 -2.941902e-07 1.706998 
-0.7925662 -3.191853e-07 -0.3286473 
-0.4288029 -2.819324e-07 0.9838304 
-0.7131352 -1.403714e-07 -0.4770795 
-0.5836763 -1.850749e-07 0.6884144 
-0.6062675 -1.850749e-07 -0.6071343 
-0.7081905 -1.403714e-07 0.485101 
-0.4760827 -2.595807e-07 -0.713803 
-0.7925662 -3.191853e-07 0.3286474 
-0.3276072 -2.521301e-07 -0.7929997 
-0.8414847 -9.566793e-08 0.1675545 
-0.1665533 -3.154601e-07 -0.8416845 
-0.4669373 0.09288036 -0.713803 
-0.5946178 0.1182792 -0.6071343 
-0.7773362 0.1546236 0.3286474 
-0.6945844 0.1381642 0.485101 
-0.3213114 0.06391448 -0.7929997 
-0.8253129 0.1641653 0.1675545 
-0.1633551 0.03249552 -0.8416845 
-0.8415152 0.1673896 7.54979e-08 
-0.06710105 0.02530143 1.706998 
-0.8253129 0.1641653 -0.1675543 
-0.2506517 0.04986051 1.34135 
-0.7773362 0.1546236 -0.3286473 
-0.4205633 0.0836584 0.9838304 
-0.6994338 0.1391262 -0.4770795 
-0.5724642 0.1138719 0.6884144 
-0.2361076 0.09780132 1.34135 
-0.06320611 0.04962158 1.706998 
-0.7322333 0.3033003 -0.3286473 
-0.7774267 0.322022 -0.1675543 
-0.3961592 0.1640966 0.9838304 
-0.6588528 0.2729073 -0.4770795 
-0.5392462 0.2233656 0.6884144 
-0.5601213 0.2320112 -0.6071343 
-0.6542852 0.2710135 0.485101 
-0.4398464 0.1821895 -0.713803 
-0.7322333 0.3033003 0.3286474 
-0.3026677 0.1253718 -0.7929997 
-0.7774267 0.322022 0.1675545 
-0.1538784 0.06373674 -0.8416845 
-0.7926916 0.3283438 7.54979e-08 
-0.6589919 0.4403273 0.3286474 
-0.5888422 0.3934507 0.485101 
-0.272396 0.1820074 -0.7929997 
-0.3958517 0.2644982 -0.713803 
-0.6996677 0.4675047 0.1675545 
-0.138485 0.09253359 -0.8416845 
-0.7134039 0.4766806 7.54979e-08 
-0.05688293 0.07203586 1.706998 
-0.6996677 0.4675047 -0.1675543 
-0.2124924 0.1419821 1.34135 
-0.6589919 0.4403273 -0.3286473 
-0.3565371 0.2382278 0.9838304 
-0.5929505 0.3961982 -0.4770795 
-0.4853086 0.3242762 0.6884144 
-0.504095 0.3368264 -0.6071343 
-0.5604291 0.5604287 -0.3286473 
-0.5950203 0.5950203 -0.1675543 
-0.3032106 0.3032104 0.9838304 
-0.1807098 0.1807096 1.34135 
-0.5042636 0.5042636 -0.4770795 
-0.4127249 0.4127248 0.6884144 
-0.4286987 0.4286985 -0.6071343 
-0.5007663 0.5007664 0.485101 
-0.3366444 0.3366442 -0.713803 
-0.5604291 0.5604287 0.3286474 
-0.2316516 0.2316513 -0.7929997 
-0.5950203 0.5950203 0.1675545 
-0.1177723 0.1177719 -0.8416845 
-0.6067005 0.6067005 7.54979e-08 
-0.048378 0.09168927 1.706998 
-0.1820076 0.2723958 -0.7929997 
-0.2644984 0.3958515 -0.713803 
-0.4675046 0.6996676 0.1675545 
-0.4403276 0.6589916 0.3286474 
-0.09253391 0.1384847 -0.8416845 
-0.4766805 0.7134038 7.54979e-08 
-0.0380083 0.1078084 1.706998 
-0.4675046 0.6996676 -0.1675543 
-0.1419823 0.2124921 1.34135 
-0.4403276 0.6589916 -0.3286473 
-0.238228 0.3565369 0.9838304 
-0.3961982 0.5929505 -0.4770795 
-0.3242763 0.4853085 0.6884144 
-0.3368265 0.5040948 -0.6071343 
-0.3934506 0.5888422 0.485101 
-0.2729071 0.6588526 -0.4770795 
-0.3033049 0.732233 -0.3286473 
-0.2233657 0.5392461 0.6884144 
-0.1640967 0.3961589 0.9838304 
-0.2320112 0.5601211 -0.6071343 
-0.2710133 0.654285 0.485101 
-0.1821896 0.4398461 -0.713803 
-0.3033049 0.732233 0.3286474 
-0.1253721 0.3026675 -0.7929997 
-0.3220218 0.7774265 0.1675545 
-0.06373705 0.1538781 -0.8416845 
-0.3283437 0.7926913 7.54979e-08 
-0.02618189 0.1197926 1.706998 
-0.3220218 0.7774265 -0.1675543 
-0.09780153 0.2361073 1.34135 
-0.03249582 0.1633548 -0.8416845 
-0.06391466 0.3213111 -0.7929997 
-0.1673894 0.8415147 7.54979e-08 
-0.1641652 0.8253126 0.1675545 
-0.01334988 0.1271745 1.706998 
-0.1641652 0.8253126 -0.1675543 
-0.04986072 0.2506514 1.34135 
-0.1546238 0.7773359 -0.3286473 
-0.08365855 0.4205628 0.9838304 
-0.1391261 0.6994335 -0.4770795 
-0.1138719 0.5724639 0.6884144 
-0.1182792 0.5946175 -0.6071343 
-0.138164 0.6945841 0.485101 
-0.09288048 0.4669369 -0.713803 
-0.1546238 0.7773359 0.3286474 
-0.0003456427 0.5841267 0.6886701 
0.001895995 0.4292878 0.984073 
-0.007399873 0.6065142 -0.607377 
-0.005692304 0.7135334 -0.4773439 
-0.0003628582 0.7086407 0.4853567 
-0.009493046 0.4762035 -0.7139807 
-0.004427093 0.7931075 0.3288728 
-0.0005444637 0.3276458 -0.7930951 
-0.003651179 0.8421298 0.1676802 
-0.003153372 0.1665616 -0.8417105 
-0.003391147 0.8586839 7.54979e-08 
-0.0009920672 0.1305831 1.707245 
-0.003651179 0.8421298 -0.16768 
-0.0009443546 0.25605 1.341597 
-0.004427093 0.7931075 -0.3288726 
3 0 1 2 
3 2 3 0 
3 4 5 6 
3 6 7 4 
3 8 0 3 
3 3 9 8 
3 10 4 7 
3 7 11 10 
3 12 8 9 
3 9 13 12 
3 14 10 11 
3 11 15 14 
3 16 12 13 
3 13 17 16 
3 18 14 15 
3 15 19 18 
3 20 16 17 
3 17 21 20 
3 22 18 19 
3 19 23 22 
3 24 20 21 
3 21 25 24 
3 26 27 28 
3 29 22 23 
3 30 24 25 
3 25 31 30 
3 1 26 28 
3 28 2 1 
3 5 30 31 
3 31 6 5 
3 21 17 32 
3 32 33 21 
3 23 19 34 
3 34 35 23 
3 25 21 33 
3 33 36 25 
3 28 27 37 
3 29 23 35 
3 31 25 36 
3 36 38 31 
3 2 28 37 
3 37 39 2 
3 6 31 38 
3 38 40 6 
3 3 2 39 
3 39 41 3 
3 7 6 40 
3 40 42 7 
3 9 3 41 
3 41 43 9 
3 11 7 42 
3 42 44 11 
3 13 9 43 
3 43 45 13 
3 15 11 44 
3 44 46 15 
3 17 13 45 
3 45 32 17 
3 19 15 46 
3 46 34 19 
3 42 40 47 
3 47 48 42 
3 43 41 49 
3 49 50 43 
3 44 42 48 
3 48 51 44 
3 45 43 50 
3 50 52 45 
3 46 44 51 
3 51 53 46 
3 32 45 52 
3 52 54 32 
3 34 46 53 
3 53 55 34 
3 33 32 54 
3 54 56 33 
3 35 34 55 
3 55 57 35 
3 36 33 56 
3 56 58 36 
3 37 27 59 
3 29 35 57 
3 38 36 58 
3 58 60 38 
3 39 37 59 
3 59 61 39 
3 40 38 60 
3 60 47 40 
3 41 39 61 
3 61 49 41 
3 57 55 62 
3 62 63 57 
3 58 56 64 
3 64 65 58 
3 59 27 66 
3 29 57 63 
3 60 58 65 
3 65 67 60 
3 61 59 66 
3 66 68 61 
3 47 60 67 
3 67 69 47 
3 49 61 68 
3 68 70 49 
3 48 47 69 
3 69 71 48 
3 50 49 70 
3 70 72 50 
3 51 48 71 
3 71 73 51 
3 52 50 72 
3 72 74 52 
3 53 51 73 
3 73 75 53 
3 54 52 74 
3 74 76 54 
3 55 53 75 
3 75 62 55 
3 56 54 76 
3 76 64 56 
3 73 71 77 
3 77 78 73 
3 74 72 79 
3 79 80 74 
3 75 73 78 
3 78 81 75 
3 76 74 80 
3 80 82 76 
3 62 75 81 
3 81 83 62 
3 64 76 82 
3 82 84 64 
3 63 62 83 
3 83 85 63 
3 65 64 84 
3 84 86 65 
3 66 27 87 
3 29 63 85 
3 67 65 86 
3 86 88 67 
3 68 66 87 
3 87 89 68 
3 69 67 88 
3 88 90 69 
3 70 68 89 
3 89 91 70 
3 71 69 90 
3 90 77 71 
3 72 70 91 
3 91 79 72 
3 87 27 92 
3 29 85 93 
3 88 86 94 
3 94 95 88 
3 89 87 92 
3 92 96 89 
3 90 88 95 
3 95 97 90 
3 91 89 96 
3 96 98 91 
3 77 90 97 
3 97 99 77 
3 79 91 98 
3 98 100 79 
3 78 77 99 
3 99 101 78 
3 80 79 100 
3 100 102 80 
3 81 78 101 
3 101 103 81 
3 82 80 102 
3 102 104 82 
3 83 81 103 
3 103 105 83 
3 84 82 104 
3 104 106 84 
3 85 83 105 
3 105 93 85 
3 86 84 106 
3 106 94 86 
3 102 100 107 
3 107 108 102 
3 103 101 109 
3 109 110 103 
3 104 102 108 
3 108 111 104 
3 105 103 110 
3 110 112 105 
3 106 104 111 
3 111 113 106 
3 93 105 112 
3 112 114 93 
3 94 106 113 
3 113 115 94 
3 92 27 116 
3 29 93 114 
3 95 94 115 
3 115 117 95 
3 96 92 116 
3 116 118 96 
3 97 95 117 
3 117 119 97 
3 98 96 118 
3 118 120 98 
3 99 97 119 
3 119 121 99 
3 100 98 120 
3 120 107 100 
3 101 99 121 
3 121 109 101 
3 117 115 122 
3 122 123 117 
3 118 116 124 
3 124 125 118 
3 119 117 123 
3 123 126 119 
3 120 118 125 
3 125 127 120 
3 121 119 126 
3 126 128 121 
3 107 120 127 
3 127 129 107 
3 109 121 128 
3 128 130 109 
3 108 107 129 
3 129 131 108 
3 110 109 130 
3 130 132 110 
3 111 108 131 
3 131 133 111 
3 112 110 132 
3 132 134 112 
3 113 111 133 
3 133 135 113 
3 114 112 134 
3 134 136 114 
3 115 113 135 
3 135 122 115 
3 116 27 124 
3 29 114 136 
3 132 130 137 
3 137 138 132 
3 133 131 139 
3 139 140 133 
3 134 132 138 
3 138 141 134 
3 135 133 140 
3 140 142 135 
3 136 134 141 
3 141 143 136 
3 122 135 142 
3 142 144 122 
3 124 27 145 
3 29 136 143 
3 123 122 144 
3 144 146 123 
3 125 124 145 
3 145 147 125 
3 126 123 146 
3 146 148 126 
3 127 125 147 
3 147 149 127 
3 128 126 148 
3 148 150 128 
3 129 127 149 
3 149 151 129 
3 130 128 150 
3 150 137 130 
3 131 129 151 
3 151 139 131 
3 147 145 152 
3 152 153 147 
3 148 146 154 
3 154 155 148 
3 149 147 153 
3 153 156 149 
3 150 148 155 
3 155 157 150 
3 151 149 156 
3 156 158 151 
3 137 150 157 
3 157 159 137 
3 139 151 158 
3 158 160 139 
3 138 137 159 
3 159 161 138 
3 140 139 160 
3 160 162 140 
3 141 138 161 
3 161 163 141 
3 142 140 162 
3 162 164 142 
3 143 141 163 
3 163 165 143 
3 144 142 164 
3 164 166 144 
3 145 27 152 
3 29 143 165 
3 146 144 166 
3 166 154 146 
3 162 160 167 
3 167 168 162 
3 163 161 169 
3 169 170 163 
3 164 162 168 
3 168 171 164 
3 165 163 170 
3 170 172 165 
3 166 164 171 
3 171 173 166 
3 152 27 174 
3 29 165 172 
3 154 166 173 
3 173 175 154 
3 153 152 174 
3 174 176 153 
3 155 154 175 
3 175 177 155 
3 156 153 176 
3 176 178 156 
3 157 155 177 
3 177 179 157 
3 158 156 178 
3 178 180 158 
3 159 157 179 
3 179 181 159 
3 160 158 180 
3 180 167 160 
3 161 159 181 
3 181 169 161 
3 177 175 182 
3 182 183 177 
3 178 176 184 
3 184 185 178 
3 179 177 183 
3 183 186 179 
3 180 178 185 
3 185 187 180 
3 181 179 186 
3 186 188 181 
3 167 180 187 
3 187 189 167 
3 169 181 188 
3 188 190 169 
3 168 167 189 
3 189 191 168 
3 170 169 190 
3 190 192 170 
3 171 168 191 
3 191 193 171 
3 172 170 192 
3 192 194 172 
3 173 171 193 
3 193 195 173 
3 174 27 196 
3 29 172 194 
3 175 173 195 
3 195 182 175 
3 176 174 196 
3 196 184 176 
3 192 190 197 
3 197 198 192 
3 193 191 199 
3 199 200 193 
3 194 192 198 
3 198 201 194 
3 195 193 200 
3 200 202 195 
3 196 27 203 
3 29 194 201 
3 182 195 202 
3 202 204 182 
3 184 196 203 
3 203 205 184 
3 183 182 204 
3 204 206 183 
3 185 184 205 
3 205 207 185 
3 186 183 206 
3 206 208 186 
3 187 185 207 
3 207 209 187 
3 188 186 208 
3 208 210 188 
3 189 187 209 
3 209 211 189 
3 190 188 210 
3 210 197 190 
3 191 189 211 
3 211 199 191 
3 208 206 212 
3 212 213 208 
3 209 207 214 
3 214 215 209 
3 210 208 213 
3 213 216 210 
3 211 209 215 
3 215 217 211 
3 197 210 216 
3 216 218 197 
3 199 211 217 
3 217 219 199 
3 198 197 218 
3 218 220 198 
3 200 199 219 
3 219 221 200 
3 201 198 220 
3 220 222 201 
3 202 200 221 
3 221 223 202 
3 203 27 224 
3 29 201 222 
3 204 202 223 
3 223 225 204 
3 205 203 224 
3 224 226 205 
3 206 204 225 
3 225 212 206 
3 207 205 226 
3 226 214 207 
3 222 220 227 
3 227 228 222 
3 223 221 229 
3 229 230 223 
3 224 27 231 
3 29 222 228 
3 225 223 230 
3 230 232 225 
3 226 224 231 
3 231 233 226 
3 212 225 232 
3 232 234 212 
3 214 226 233 
3 233 235 214 
3 213 212 234 
3 234 236 213 
3 215 214 235 
3 235 237 215 
3 216 213 236 
3 236 238 216 
3 217 215 237 
3 237 239 217 
3 218 216 238 
3 238 240 218 
3 219 217 239 
3 239 241 219 
3 220 218 240 
3 240 227 220 
3 221 219 241 
3 241 229 221 
3 237 235 242 
3 242 243 237 
3 238 236 244 
3 244 245 238 
3 239 237 243 
3 243 246 239 
3 240 238 245 
3 245 247 240 
3 241 239 246 
3 246 248 241 
3 227 240 247 
3 247 249 227 
3 229 241 248 
3 248 250 229 
3 228 227 249 
3 249 251 228 
3 230 229 250 
3 250 252 230 
3 231 27 253 
3 29 228 251 
3 232 230 252 
3 252 254 232 
3 233 231 253 
3 253 255 233 
3 234 232 254 
3 254 256 234 
3 235 233 255 
3 255 242 235 
3 236 234 256 
3 256 244 236 
3 257 258 259 
3 259 260 257 
3 261 262 263 
3 263 264 261 
3 265 266 258 
3 258 257 265 
3 267 268 262 
3 262 261 267 
3 269 270 266 
3 266 265 269 
3 271 272 268 
3 268 267 271 
3 273 274 270 
3 270 269 273 
3 275 276 272 
3 272 271 275 
3 277 278 274 
3 274 273 277 
3 279 280 276 
3 276 275 279 
3 281 282 278 
3 278 277 281 
3 283 284 285 
3 286 280 279 
3 287 288 282 
3 282 281 287 
3 260 259 284 
3 284 283 260 
3 264 263 288 
3 288 287 264 
3 278 289 290 
3 290 274 278 
3 280 291 292 
3 292 276 280 
3 282 293 289 
3 289 278 282 
3 284 294 285 
3 286 291 280 
3 288 295 293 
3 293 282 288 
3 259 296 294 
3 294 284 259 
3 263 297 295 
3 295 288 263 
3 258 298 296 
3 296 259 258 
3 262 299 297 
3 297 263 262 
3 266 300 298 
3 298 258 266 
3 268 301 299 
3 299 262 268 
3 270 302 300 
3 300 266 270 
3 272 303 301 
3 301 268 272 
3 274 290 302 
3 302 270 274 
3 276 292 303 
3 303 272 276 
3 299 304 305 
3 305 297 299 
3 300 306 307 
3 307 298 300 
3 301 308 304 
3 304 299 301 
3 302 309 306 
3 306 300 302 
3 303 310 308 
3 308 301 303 
3 290 311 309 
3 309 302 290 
3 292 312 310 
3 310 303 292 
3 289 313 311 
3 311 290 289 
3 291 314 312 
3 312 292 291 
3 293 315 313 
3 313 289 293 
3 294 316 285 
3 286 314 291 
3 295 317 315 
3 315 293 295 
3 296 318 316 
3 316 294 296 
3 297 305 317 
3 317 295 297 
3 298 307 318 
3 318 296 298 
3 314 319 320 
3 320 312 314 
3 315 321 322 
3 322 313 315 
3 316 323 285 
3 286 319 314 
3 317 324 321 
3 321 315 317 
3 318 325 323 
3 323 316 318 
3 305 326 324 
3 324 317 305 
3 307 327 325 
3 325 318 307 
3 304 328 326 
3 326 305 304 
3 306 329 327 
3 327 307 306 
3 308 330 328 
3 328 304 308 
3 309 331 329 
3 329 306 309 
3 310 332 330 
3 330 308 310 
3 311 333 331 
3 331 309 311 
3 312 320 332 
3 332 310 312 
3 313 322 333 
3 333 311 313 
3 330 334 335 
3 335 328 330 
3 331 336 337 
3 337 329 331 
3 332 338 334 
3 334 330 332 
3 333 339 336 
3 336 331 333 
3 320 340 338 
3 338 332 320 
3 322 341 339 
3 339 333 322 
3 319 342 340 
3 340 320 319 
3 321 343 341 
3 341 322 321 
3 323 344 285 
3 286 342 319 
3 324 345 343 
3 343 321 324 
3 325 346 344 
3 344 323 325 
3 326 347 345 
3 345 324 326 
3 327 348 346 
3 346 325 327 
3 328 335 347 
3 347 326 328 
3 329 337 348 
3 348 327 329 
3 344 349 285 
3 286 350 342 
3 345 351 352 
3 352 343 345 
3 346 353 349 
3 349 344 346 
3 347 354 351 
3 351 345 347 
3 348 355 353 
3 353 346 348 
3 335 356 354 
3 354 347 335 
3 337 357 355 
3 355 348 337 
3 334 358 356 
3 356 335 334 
3 336 359 357 
3 357 337 336 
3 338 360 358 
3 358 334 338 
3 339 361 359 
3 359 336 339 
3 340 362 360 
3 360 338 340 
3 341 363 361 
3 361 339 341 
3 342 350 362 
3 362 340 342 
3 343 352 363 
3 363 341 343 
3 359 364 365 
3 365 357 359 
3 360 366 367 
3 367 358 360 
3 361 368 364 
3 364 359 361 
3 362 369 366 
3 366 360 362 
3 363 370 368 
3 368 361 363 
3 350 371 369 
3 369 362 350 
3 352 372 370 
3 370 363 352 
3 349 373 285 
3 286 371 350 
3 351 374 372 
3 372 352 351 
3 353 375 373 
3 373 349 353 
3 354 376 374 
3 374 351 354 
3 355 377 375 
3 375 353 355 
3 356 378 376 
3 376 354 356 
3 357 365 377 
3 377 355 357 
3 358 367 378 
3 378 356 358 
3 374 379 380 
3 380 372 374 
3 375 381 382 
3 382 373 375 
3 376 383 379 
3 379 374 376 
3 377 384 381 
3 381 375 377 
3 378 385 383 
3 383 376 378 
3 365 386 384 
3 384 377 365 
3 367 387 385 
3 385 378 367 
3 364 388 386 
3 386 365 364 
3 366 389 387 
3 387 367 366 
3 368 390 388 
3 388 364 368 
3 369 391 389 
3 389 366 369 
3 370 392 390 
3 390 368 370 
3 371 393 391 
3 391 369 371 
3 372 380 392 
3 392 370 372 
3 373 382 285 
3 286 393 371 
3 389 394 395 
3 395 387 389 
3 390 396 397 
3 397 388 390 
3 391 398 394 
3 394 389 391 
3 392 399 396 
3 396 390 392 
3 393 400 398 
3 398 391 393 
3 380 401 399 
3 399 392 380 
3 382 402 285 
3 286 400 393 
3 379 403 401 
3 401 380 379 
3 381 404 402 
3 402 382 381 
3 383 405 403 
3 403 379 383 
3 384 406 404 
3 404 381 384 
3 385 407 405 
3 405 383 385 
3 386 408 406 
3 406 384 386 
3 387 395 407 
3 407 385 387 
3 388 397 408 
3 408 386 388 
3 404 409 410 
3 410 402 404 
3 405 411 412 
3 412 403 405 
3 406 413 409 
3 409 404 406 
3 407 414 411 
3 411 405 407 
3 408 415 413 
3 413 406 408 
3 395 416 414 
3 414 407 395 
3 397 417 415 
3 415 408 397 
3 394 418 416 
3 416 395 394 
3 396 419 417 
3 417 397 396 
3 398 420 418 
3 418 394 398 
3 399 421 419 
3 419 396 399 
3 400 422 420 
3 420 398 400 
3 401 423 421 
3 421 399 401 
3 402 410 285 
3 286 422 400 
3 403 412 423 
3 423 401 403 
3 419 424 425 
3 425 417 419 
3 420 426 427 
3 427 418 420 
3 421 428 424 
3 424 419 421 
3 422 429 426 
3 426 420 422 
3 423 430 428 
3 428 421 423 
3 410 431 285 
3 286 429 422 
3 412 432 430 
3 430 423 412 
3 409 433 431 
3 431 410 409 
3 411 434 432 
3 432 412 411 
3 413 435 433 
3 433 409 413 
3 414 436 434 
3 434 411 414 
3 415 437 435 
3 435 413 415 
3 416 438 436 
3 436 414 416 
3 417 425 437 
3 437 415 417 
3 418 427 438 
3 438 416 418 
3 434 439 440 
3 440 432 434 
3 435 441 442 
3 442 433 435 
3 436 443 439 
3 439 434 436 
3 437 444 441 
3 441 435 437 
3 438 445 443 
3 443 436 438 
3 425 446 444 
3 444 437 425 
3 427 447 445 
3 445 438 427 
3 424 448 446 
3 446 425 424 
3 426 449 447 
3 447 427 426 
3 428 450 448 
3 448 424 428 
3 429 451 449 
3 449 426 429 
3 430 452 450 
3 450 428 430 
3 431 453 285 
3 286 451 429 
3 432 440 452 
3 452 430 432 
3 433 442 453 
3 453 431 433 
3 449 454 455 
3 455 447 449 
3 450 456 457 
3 457 448 450 
3 451 458 454 
3 454 449 451 
3 452 459 456 
3 456 450 452 
3 453 460 285 
3 286 458 451 
3 440 461 459 
3 459 452 440 
3 442 462 460 
3 460 453 442 
3 439 463 461 
3 461 440 439 
3 441 464 462 
3 462 442 441 
3 443 465 463 
3 463 439 443 
3 444 466 464 
3 464 441 444 
3 445 467 465 
3 465 443 445 
3 446 468 466 
3 466 444 446 
3 447 455 467 
3 467 445 447 
3 448 457 468 
3 468 446 448 
3 465 469 470 
3 470 463 465 
3 466 471 472 
3 472 464 466 
3 467 473 469 
3 469 465 467 
3 468 474 471 
3 471 466 468 
3 455 475 473 
3 473 467 455 
3 457 476 474 
3 474 468 457 
3 454 477 475 
3 475 455 454 
3 456 478 476 
3 476 457 456 
3 458 479 477 
3 477 454 458 
3 459 480 478 
3 478 456 459 
3 460 481 285 
3 286 479 458 
3 461 482 480 
3 480 459 461 
3 462 483 481 
3 481 460 462 
3 463 470 482 
3 482 461 463 
3 464 472 483 
3 483 462 464 
3 479 484 485 
3 485 477 479 
3 480 486 487 
3 487 478 480 
3 481 488 285 
3 286 484 479 
3 482 489 486 
3 486 480 482 
3 483 490 488 
3 488 481 483 
3 470 491 489 
3 489 482 470 
3 472 492 490 
3 490 483 472 
3 469 493 491 
3 491 470 469 
3 471 494 492 
3 492 472 471 
3 473 495 493 
3 493 469 473 
3 474 496 494 
3 494 471 474 
3 475 497 495 
3 495 473 475 
3 476 498 496 
3 496 474 476 
3 477 485 497 
3 497 475 477 
3 478 487 498 
3 498 476 478 
3 494 499 500 
3 500 492 494 
3 495 501 502 
3 502 493 495 
3 496 503 499 
3 499 494 496 
3 497 504 501 
3 501 495 497 
3 498 505 503 
3 503 496 498 
3 485 506 504 
3 504 497 485 
3 487 507 505 
3 505 498 487 
3 484 508 506 
3 506 485 484 
3 486 509 507 
3 507 487 486 
3 488 510 285 
3 286 508 484 
3 489 511 509 
3 509 486 489 
3 490 512 510 
3 510 488 490 
3 491 513 511 
3 511 489 491 
3 492 500 512 
3 512 490 492 
3 493 502 513 
3 513 491 493 
3 26 1 260 
3 260 283 26 
3 1 0 257 
3 257 260 1 
3 0 8 265 
3 265 257 0 
3 8 12 269 
3 269 265 8 
3 12 16 273 
3 273 269 12 
3 16 20 277 
3 277 273 16 
3 20 24 281 
3 281 277 20 
3 24 30 287 
3 287 281 24 
3 30 5 264 
3 264 287 30 
3 5 4 261 
3 261 264 5 
3 4 10 267 
3 267 261 4 
3 10 14 271 
3 271 267 10 
3 14 18 275 
3 275 271 14 
3 18 22 279 
3 279 275 18 
3 255 253 510 
3 510 512 255 
3 242 255 512 
3 512 500 242 
3 243 242 500 
3 500 499 243 
3 246 243 499 
3 499 503 246 
3 248 246 503 
3 503 505 248 
3 250 248 505 
3 505 507 250 
3 252 250 507 
3 507 509 252 
3 254 252 509 
3 509 511 254 
3 256 254 511 
3 511 513 256 
3 244 256 513 
3 513 502 244 
3 245 244 502 
3 502 501 245 
3 247 245 501 
3 501 504 247 
3 249 247 504 
3 504 506 249 
3 251 249 506 
3 506 508 251 
3 253 27 285 
3 285 510 253 
3 29 251 508 
3 508 286 29 
3 27 26 283 
3 283 285 27 
3 22 29 286 
3 286 279 22 
